<mxfile host="app.diagrams.net" modified="2023-10-03T16:08:21.989Z" agent="Mozilla/5.0 (Windows NT 10.0; Win64; x64) AppleWebKit/537.36 (KHTML, like Gecko) Chrome/115.0.0.0 Safari/537.36" version="22.0.2" etag="U5Wo1GJpJlVFTfhLqwns" type="github">
  <diagram name="第 1 页" id="EoOKZSyCrOAgvpwENK3r">
    <mxGraphModel>
      <root>
        <mxCell id="0" />
        <mxCell id="1" parent="0" />
      </root>
    </mxGraphModel>
  </diagram>
</mxfile>
